<svg xmlns="http://www.w3.org/2000/svg" viewBox="0 0 81.56 27.47"><defs><style>.cls-1{fill:#0a1c2b;}.cls-2{isolation:isolate;}</style></defs><title>Asset 2</title><g id="Layer_2" data-name="Layer 2"><g id="Layer_1-2" data-name="Layer 1"><g id="ATHENA_LOGO" data-name="ATHENA LOGO"><path id="Path_28" data-name="Path 28" class="cls-1" d="M13.69,27.38l7.59-12.56c-1.9-.66-2.75-.37-3.61,1.06-2.2,3.63-4.43,7.24-6.57,10.9-.51.88-1.18.66-2.09.67,2.59-4.28,9.27-14.76,11.81-19l-.23-.06c-1.79-.53-2.47-.3-3.38,1.18C15,13.15,8.68,23,6.55,26.61A1.14,1.14,0,0,1,5,27.19H5a7.34,7.34,0,0,1-.57-13.7,1,1,0,0,0,.72-1.12A11.49,11.49,0,0,1,13.07.62,11.34,11.34,0,0,1,27.2,6.9,1.38,1.38,0,0,1,27.1,8C23.37,14.2,19.58,20.38,15.86,26.6,15.34,27.46,14.72,27.58,13.69,27.38Z"/><path id="Path_29" data-name="Path 29" class="cls-1" d="M18.43,27.39c1.36-2.27,2.58-4.29,3.81-6.32,2.39-3.93,4.82-7.85,7.16-11.82a1.52,1.52,0,0,1,2-.86l.13.06a9.77,9.77,0,0,1,6.16,12.36,9.5,9.5,0,0,1-.76,1.69,9.38,9.38,0,0,1-8.6,4.88H18.43Z"/><g id="ATHENA" class="cls-2"><g class="cls-2"><path class="cls-1" d="M48,16.25h-3l-.67,1.86h-1L46.13,11H47l2.72,7.11h-1Zm-2.7-.77h2.42l-1.21-3.32Z"/><path class="cls-1" d="M54.91,11.77H52.62v6.34h-.93V11.77H49.41V11h5.5Z"/><path class="cls-1" d="M61.43,18.11h-1V14.82H56.9v3.29H56V11h.94v3.06h3.58V11h1Z"/><path class="cls-1" d="M67.11,14.82H64v2.52h3.58v.77H63.09V11h4.47v.77H64v2.29h3.08Z"/><path class="cls-1" d="M74.24,18.11H73.3l-3.58-5.48v5.48h-1V11h1l3.59,5.5V11h.93Z"/><path class="cls-1" d="M79.92,16.25h-3l-.67,1.86h-1L78,11h.82l2.72,7.11h-1Zm-2.7-.77h2.42l-1.21-3.32Z"/></g></g></g></g></g></svg>