<svg xmlns="http://www.w3.org/2000/svg" width="104.08" height="57.227" viewBox="0 0 104.08 57.227">
  <g id="Group_6" data-name="Group 6" transform="translate(-37.96 -1.17)">
    <g id="Group_5" data-name="Group 5">
      <g id="Group_2" data-name="Group 2">
        <g id="Group_1" data-name="Group 1">
          <path id="Path_1" data-name="Path 1" d="M47.84,34.24H44.67L37.96,50h3.51l2.59-6.29.08-.26h-.01l.01-.03.04-.1.01-.01,2.02-4.93,2.03,4.95.01.01.11.25h.01l.07.14L50.95,50h3.6Z" fill="#fff"/>
          <path id="Path_2" data-name="Path 2" d="M135.33,34.24h-3.17L125.45,50h3.5l2.59-6.29.09-.26h-.01l.01-.03.04-.1.01-.01,2.02-4.93,2.02,4.95.01.01.12.25h.01l.05.12.01.02L138.44,50h3.6Z" fill="#fff"/>
          <path id="Path_3" data-name="Path 3" d="M56.96,34.35v3.17h4.77V50h3.45V37.52h4.76V34.35Z" fill="#fff"/>
          <path id="Path_4" data-name="Path 4" d="M83.49,34.35v6.19H77.14V34.35H73.7V50h3.44V43.72h6.35V50h3.45V34.35Z" fill="#fff"/>
          <path id="Path_5" data-name="Path 5" d="M95.21,46.94V43.65h7.38V40.59H95.21V37.41h8.39V34.35H91.8V50h11.9V46.94Z" fill="#fff"/>
          <path id="Path_6" data-name="Path 6" d="M118.42,34.35v9.64l-7.33-9.64h-3.18V50h3.39V40.05L118.89,50h2.93V34.35Z" fill="#fff"/>
        </g>
      </g>
      <g id="Group_3" data-name="Group 3">
        <path id="Path_7" data-name="Path 7" d="M68.563,56.175a2.838,2.838,0,0,1-.151.965,1.885,1.885,0,0,1-.425.693,1.755,1.755,0,0,1-.657.418,2.656,2.656,0,0,1-1.7,0,1.774,1.774,0,0,1-.657-.415,1.856,1.856,0,0,1-.425-.683,2.693,2.693,0,0,1-.15-.935V53.309h.564v2.873a1.777,1.777,0,0,0,.4,1.251,1.672,1.672,0,0,0,2.226.021A1.693,1.693,0,0,0,68,56.218V53.309h.565Z" fill="#fff"/>
        <path id="Path_8" data-name="Path 8" d="M71.686,54.875a.637.637,0,0,0,.207.262,1.516,1.516,0,0,0,.415.215,4.98,4.98,0,0,0,.678.182,2.936,2.936,0,0,1,1.233.516,1.114,1.114,0,0,1,.4.908A1.318,1.318,0,0,1,74.139,58a1.582,1.582,0,0,1-.538.287,2.243,2.243,0,0,1-.686.1,3,3,0,0,1-1.1-.194,3.087,3.087,0,0,1-.947-.6l.35-.415a2.976,2.976,0,0,0,.793.533,2.3,2.3,0,0,0,.923.175,1.286,1.286,0,0,0,.811-.237.751.751,0,0,0,.3-.623.835.835,0,0,0-.057-.318.633.633,0,0,0-.2-.254,1.454,1.454,0,0,0-.4-.208,5.454,5.454,0,0,0-.648-.179A5.064,5.064,0,0,1,72,55.85a1.862,1.862,0,0,1-.527-.293,1.08,1.08,0,0,1-.308-.4,1.345,1.345,0,0,1-.1-.544,1.242,1.242,0,0,1,.121-.55,1.3,1.3,0,0,1,.343-.434,1.685,1.685,0,0,1,.522-.286,1.979,1.979,0,0,1,.658-.1,2.75,2.75,0,0,1,.961.152,2.9,2.9,0,0,1,.8.456l-.329.435a2.451,2.451,0,0,0-.7-.414,2.142,2.142,0,0,0-.74-.129,1.4,1.4,0,0,0-.439.065,1.108,1.108,0,0,0-.336.172.722.722,0,0,0-.214.257.7.7,0,0,0-.076.323A.839.839,0,0,0,71.686,54.875Z" fill="#fff"/>
        <path id="Path_9" data-name="Path 9" d="M78.84,58.312h-.565V53.83H76.6v-.521H80.52v.521H78.84Z" fill="#fff"/>
        <path id="Path_10" data-name="Path 10" d="M89.787,58.173a2.843,2.843,0,0,1-1.148.224,2.68,2.68,0,0,1-1.061-.2,2.351,2.351,0,0,1-1.308-1.372,2.864,2.864,0,0,1-.176-1.008,2.7,2.7,0,0,1,.183-.986A2.569,2.569,0,0,1,86.788,54a2.42,2.42,0,0,1,1.815-.779,3.536,3.536,0,0,1,.576.043,2.393,2.393,0,0,1,.485.129,2.177,2.177,0,0,1,.421.21,3.255,3.255,0,0,1,.383.283l-.363.428a2.627,2.627,0,0,0-.3-.232,2.033,2.033,0,0,0-.34-.179,2.082,2.082,0,0,0-.4-.118,2.548,2.548,0,0,0-.482-.043,1.784,1.784,0,0,0-.765.165,1.851,1.851,0,0,0-.6.445,2.074,2.074,0,0,0-.393.654,2.233,2.233,0,0,0-.142.8,2.425,2.425,0,0,0,.139.834,1.966,1.966,0,0,0,.4.662,1.8,1.8,0,0,0,.622.436,2.039,2.039,0,0,0,.822.158,2.212,2.212,0,0,0,.808-.147,2.435,2.435,0,0,0,.637-.355V56.146H88.582v-.5h2.066v1.989A3.265,3.265,0,0,1,89.787,58.173Z" fill="#fff"/>
        <path id="Path_11" data-name="Path 11" d="M93.171,58.312V53.094h.55v5.218Z" fill="#fff"/>
        <path id="Path_12" data-name="Path 12" d="M99.771,57.207a1.932,1.932,0,0,1-.4.618,1.862,1.862,0,0,1-.615.418,1.921,1.921,0,0,1-.772.154,1.869,1.869,0,0,1-.764-.154,1.9,1.9,0,0,1-.609-.414,1.885,1.885,0,0,1-.4-.611,1.94,1.94,0,0,1-.144-.743,1.963,1.963,0,0,1,.144-.747,1.94,1.94,0,0,1,3.166-.622,1.861,1.861,0,0,1,.4.611,1.95,1.95,0,0,1,.143.743A1.921,1.921,0,0,1,99.771,57.207Zm-.521-1.3a1.411,1.411,0,0,0-.29-.46,1.381,1.381,0,0,0-.436-.31,1.293,1.293,0,0,0-.543-.115,1.342,1.342,0,0,0-.55.112,1.227,1.227,0,0,0-.425.305,1.484,1.484,0,0,0-.276.457,1.6,1.6,0,0,0,0,1.124,1.363,1.363,0,0,0,.718.762A1.3,1.3,0,0,0,98,57.9a1.346,1.346,0,0,0,.551-.111,1.276,1.276,0,0,0,.429-.3,1.373,1.373,0,0,0,.278-.453,1.587,1.587,0,0,0,0-1.122Z" fill="#fff"/>
        <path id="Path_13" data-name="Path 13" d="M105.785,57.275a1.838,1.838,0,0,1-.4.6,1.718,1.718,0,0,1-.565.379,1.692,1.692,0,0,1-.654.133,1.632,1.632,0,0,1-.472-.065,1.6,1.6,0,0,1-.386-.172A1.7,1.7,0,0,1,103,57.9a2.152,2.152,0,0,1-.246-.3v.708H102.2V53.094h.551v2.265a2.983,2.983,0,0,1,.254-.314,1.644,1.644,0,0,1,.31-.261,1.706,1.706,0,0,1,.383-.179,1.561,1.561,0,0,1,.468-.067,1.737,1.737,0,0,1,1.215.5,1.8,1.8,0,0,1,.4.6,2.272,2.272,0,0,1,0,1.629Zm-.517-1.4a1.4,1.4,0,0,0-.284-.451,1.2,1.2,0,0,0-.414-.288,1.261,1.261,0,0,0-.5-.1,1.221,1.221,0,0,0-.5.1,1.368,1.368,0,0,0-.428.288,1.354,1.354,0,0,0-.3.447,1.507,1.507,0,0,0-.111.583,1.531,1.531,0,0,0,.111.587,1.356,1.356,0,0,0,.3.452,1.4,1.4,0,0,0,.428.288,1.254,1.254,0,0,0,.5.1,1.364,1.364,0,0,0,.5-.1,1.2,1.2,0,0,0,.414-.277,1.344,1.344,0,0,0,.28-.449,1.667,1.667,0,0,0,.1-.6A1.628,1.628,0,0,0,105.268,55.877Z" fill="#fff"/>
        <path id="Path_14" data-name="Path 14" d="M108.984,55.127a3.477,3.477,0,0,0-.525.2l-.164-.45a3.625,3.625,0,0,1,.621-.226,2.907,2.907,0,0,1,.723-.082,1.662,1.662,0,0,1,1.165.375,1.441,1.441,0,0,1,.407,1.112v2.259h-.529v-.558a1.825,1.825,0,0,1-.518.443,1.582,1.582,0,0,1-.818.194,1.786,1.786,0,0,1-.5-.073,1.371,1.371,0,0,1-.444-.217,1.116,1.116,0,0,1-.314-.362,1.027,1.027,0,0,1-.118-.507,1.132,1.132,0,0,1,.114-.518,1.019,1.019,0,0,1,.325-.375,1.586,1.586,0,0,1,.5-.229,2.465,2.465,0,0,1,.64-.079,4.008,4.008,0,0,1,.622.043,4.946,4.946,0,0,1,.515.114v-.127a.955.955,0,0,0-.289-.755,1.2,1.2,0,0,0-.812-.253A2.218,2.218,0,0,0,108.984,55.127Zm-.175,1.519a.667.667,0,0,0-.279.565.648.648,0,0,0,.075.314.731.731,0,0,0,.2.233.915.915,0,0,0,.295.146,1.205,1.205,0,0,0,.353.05,1.5,1.5,0,0,0,.48-.075,1.273,1.273,0,0,0,.392-.207,1,1,0,0,0,.264-.315.848.848,0,0,0,.1-.4V56.6c-.137-.038-.294-.074-.473-.107a3.355,3.355,0,0,0-.609-.051A1.314,1.314,0,0,0,108.809,56.646Z" fill="#fff"/>
        <path id="Path_15" data-name="Path 15" d="M113.727,58.312V53.094h.549v5.218Z" fill="#fff"/>
      </g>
      <g id="Group_4" data-name="Group 4">
        <path id="Path_16" data-name="Path 16" d="M111.23,20.5c0-.15-.02-.31-.03-.46a2.473,2.473,0,0,0-.05-.38c-.04-.29-.09-.58-.16-.87-.04-.18-.09-.36-.14-.54a9.153,9.153,0,0,0-.6-1.56,10.116,10.116,0,0,0-9.16-5.76,10,10,0,0,0-1.1.06,9.308,9.308,0,0,0-.17-1.5,10.223,10.223,0,0,0-4.41-6.65c-.27-.17-.54-.34-.82-.48a7.1,7.1,0,0,0-.88-.42c-.15-.06-.3-.12-.46-.18a10.153,10.153,0,0,0-3.42-.59,2.26,2.26,0,0,0-.26.01v9.45l7.85,15.02H93.46l-4.07-7.8-4.03,7.8H81.4l7.86-15.04V1.19a10.165,10.165,0,0,0-9.57,9.77c-.26-.02-.52-.03-.79-.03a10.155,10.155,0,1,0,6.29,18.12,9.759,9.759,0,0,0,3.87,1.6V23.27h-.82l1.13-2.19.02.04,1.11,2.15h-.74v7.49a.355.355,0,0,0,.1.02.715.715,0,0,0,.21.02,8.189,8.189,0,0,0,.87.04,10.17,10.17,0,0,0,3.08-.47,8.461,8.461,0,0,0,.84-.31h.01c.28-.11.55-.24.81-.37a.01.01,0,0,1,.01-.01c.3.17.59.34.9.51a10.445,10.445,0,0,0,.97.41,9.87,9.87,0,0,0,3.53.64,10.163,10.163,0,0,0,9.16-5.76,9.316,9.316,0,0,0,.43-1.03,10.066,10.066,0,0,0,.51-2.2c.02-.19.03-.38.05-.58,0-.09,0-.19.01-.29s.01-.2.01-.29A5.829,5.829,0,0,0,111.23,20.5Z" fill="#fff"/>
        <path id="Path_17" data-name="Path 17" d="M85.378,29.177" fill="#fff"/>
        <path id="Path_18" data-name="Path 18" d="M111.25,21.09v.29c-.01.1-.01.2-.01.29-.02.2-.03.39-.05.58a10.066,10.066,0,0,1-.51,2.2,9.316,9.316,0,0,1-.43,1.03,10.163,10.163,0,0,1-9.16,5.76,9.87,9.87,0,0,1-3.53-.64,10.445,10.445,0,0,1-.97-.41,10.011,10.011,0,0,1-.91-.5.01.01,0,0,0-.01-.01c-.26.13-.53.26-.8.38h-.01a8.461,8.461,0,0,1-.84.31,10.17,10.17,0,0,1-3.08.47,8.189,8.189,0,0,1-.87-.04.715.715,0,0,1-.21-.02.34.34,0,0,1-.1-.01v-7.5h.74l-1.11-2.15V17.85l4.07,7.8h3.96L89.57,10.63V1.18a2.26,2.26,0,0,1,.26-.01,10.153,10.153,0,0,1,3.42.59c.16.06.31.12.46.18a7.1,7.1,0,0,1,.88.42c.28.14.55.31.82.48a10.223,10.223,0,0,1,4.41,6.65,10.588,10.588,0,0,1,.16,1.5h.01a10,10,0,0,1,1.1-.06,10.116,10.116,0,0,1,9.16,5.76,9.153,9.153,0,0,1,.6,1.56c.05.18.1.36.14.54.07.29.12.58.16.87a2.473,2.473,0,0,1,.05.38c.01.15.03.31.03.46C111.24,20.7,111.25,20.89,111.25,21.09Z" fill="#fff"/>
      </g>
    </g>
  </g>
</svg>
