<?xml version="1.0" encoding="utf-8"?>
<!-- Generator: Adobe Illustrator 23.0.3, SVG Export Plug-In . SVG Version: 6.00 Build 0)  -->
<svg version="1.1" id="Layer_1" xmlns="http://www.w3.org/2000/svg" xmlns:xlink="http://www.w3.org/1999/xlink" x="0px" y="0px"
	 viewBox="0 0 50 50" style="enable-background:new 0 0 50 50;" xml:space="preserve">
<style type="text/css">
	.st0{fill:#FFFFFF;}
</style>
<g id="automation" transform="translate(-6941.436 -12716)">
	<g id="Group_577" transform="translate(6941.436 12716)">
		<g id="Group_572" transform="translate(0 0)">
			<g id="Group_23" transform="translate(0 0)">
				<path id="Path_14" class="st0" d="M25.8,22.2c-8.7,0-14.4-3.5-14.4-9C11.4,6.3,19.2,1,25.8,1s14.4,5.3,14.4,12.2
					C40.2,18.7,34.6,22.2,25.8,22.2z M25.8,2.5C18.6,2.5,13,8.3,13,13.2c0,5.5,6.9,7.4,12.9,7.4s12.9-2,12.9-7.4
					C38.7,8.3,33.1,2.5,25.8,2.5L25.8,2.5z"/>
				<path id="Path_15" class="st0" d="M25.8,25c-2.1-0.1-4.1-0.4-6.1-0.9c-2.2-0.5-4-0.9-5.2-0.3c-0.4,0.2-0.8,0.1-1.1-0.3
					c-0.2-0.4-0.1-0.8,0.3-1c0,0,0,0,0,0c1.7-0.9,3.8-0.4,6.3,0.2c1.9,0.5,3.8,0.8,5.8,0.9c1.9-0.1,3.9-0.4,5.8-0.9
					c2.5-0.6,4.6-1.1,6.3-0.2c0.4,0.2,0.5,0.7,0.3,1c-0.2,0.4-0.7,0.5-1,0.3c0,0,0,0,0,0c-1.1-0.6-3-0.2-5.2,0.3
					C30,24.7,27.9,25,25.8,25z"/>
				<path id="Path_16" class="st0" d="M25.8,49c-5.2,0.1-10-2.9-12.2-7.6c-0.2-0.4,0-0.8,0.3-1c0.4-0.2,0.8,0,1,0.3
					c2.8,5.9,10,8.4,15.9,5.7c2.6-1.2,4.7-3.3,5.9-5.9c0.2-0.4,0.6-0.5,1-0.3c0.4,0.2,0.5,0.6,0.4,1l0,0C36,45.9,31.2,49,25.8,49z"
					/>
				<path id="Path_17" class="st0" d="M22,29.5c0,0.8-0.7,1.5-1.5,1.5c-0.8,0-1.5-0.7-1.5-1.5c0-0.8,0.7-1.5,1.5-1.5
					C21.3,28,22,28.7,22,29.5L22,29.5z"/>
				<path id="Path_18" class="st0" d="M12.8,44.5c-0.8,0-1.6-0.5-2.4-6.4c-0.4-3.4-0.7-6.8-0.7-10.2c0-3.8,0.4-5,1.1-5.6
					c0.5-0.4,1.1-0.6,1.7-0.5c0.1,0,0.2,0,0.3,0c2.8,0,3.1,4.8,3.1,8.3C15.8,30.2,15.7,44.5,12.8,44.5z M12.2,23.2
					c-0.2,0-0.3,0-0.4,0.1c-0.2,0.2-0.6,1.1-0.6,4.5c-0.1,5,0.5,9.9,1.6,14.7c1.1-4.1,1.6-8.3,1.5-12.5c0-6.5-1.3-6.8-1.5-6.8
					c-0.1,0-0.2,0-0.3,0L12.2,23.2z"/>
				<path id="Path_19" class="st0" d="M38.9,44.5c-2.9,0-3.1-14.2-3.1-14.4c0-3.6,0.3-8.3,3.1-8.3c0.1,0,0.2,0,0.3,0
					c0.6-0.1,1.3,0.1,1.7,0.5c0.6,0.6,1.1,1.8,1.1,5.6c0,3.4-0.3,6.8-0.7,10.2C40.6,44,39.7,44.5,38.9,44.5z M39.2,43L39.2,43z
					 M39.5,23.2h-0.3c-0.1,0-0.2,0-0.3,0c-0.3,0-1.5,0.3-1.5,6.8c-0.1,4.2,0.4,8.4,1.5,12.5c1.1-4.8,1.6-9.8,1.6-14.7
					c0-3.4-0.4-4.3-0.6-4.5C39.8,23.3,39.7,23.2,39.5,23.2L39.5,23.2z"/>
				<path id="Path_20" class="st0" d="M25.8,5.5c-5.5,0-10,3.8-10,7.1s4.5,5.1,10,5.1s10-1.7,10-5.1S31.4,5.5,25.8,5.5z M24.6,13.5
					c-0.4,0.9-1.9,1.2-3.4,0.6c-1.4-0.6-2.2-1.9-1.8-2.9c0.4-0.9,1.9-1.2,3.4-0.5S25,12.6,24.6,13.5L24.6,13.5z M30.5,14.1
					c-1.4,0.6-2.9,0.4-3.4-0.6c-0.4-0.9,0.4-2.2,1.8-2.9c1.4-0.6,2.9-0.4,3.4,0.6C32.7,12.1,31.9,13.4,30.5,14.1L30.5,14.1z"/>
				<path id="Path_21" class="st0" d="M25.8,18.5c-6.5,0-10.8-2.3-10.8-5.8c0-4.4,5.8-7.9,10.8-7.9s10.8,3.4,10.8,7.9
					C36.6,16.2,32.4,18.5,25.8,18.5z M25.8,6.2c-5.1,0-9.2,3.5-9.2,6.4c0,3,4.6,4.3,9.2,4.3s9.2-1.3,9.2-4.3
					C35.1,9.7,31,6.2,25.8,6.2z M28.9,15.2c-0.2,0-0.4,0-0.6,0C27,15,26.1,14,26.2,12.7c0-0.4,0.2-0.8,0.5-1.2c1-1.4,2.7-2.2,4.4-2
					c1.2,0.1,2.2,1.2,2.1,2.4c0,0.4-0.2,0.8-0.5,1.2c-0.5,0.7-1.2,1.3-1.9,1.6C30.2,15,29.5,15.2,28.9,15.2z M30.5,11.1
					c-0.4,0-0.9,0.1-1.3,0.3c-0.5,0.2-1,0.6-1.3,1c-0.3,0.3-0.3,0.7,0,1c0.2,0.2,0.4,0.2,0.6,0.2c0.6,0.1,1.1,0,1.6-0.3
					c0.5-0.2,1-0.6,1.3-1c0.3-0.3,0.3-0.8,0-1c-0.2-0.2-0.4-0.2-0.6-0.2C30.7,11.1,30.6,11.1,30.5,11.1z M22.8,15.2
					c-0.7,0-1.3-0.2-1.9-0.4c-0.8-0.3-1.5-0.9-1.9-1.6c-0.8-1-0.6-2.4,0.4-3.1c0.3-0.3,0.8-0.4,1.2-0.4c1.7-0.2,3.5,0.6,4.4,2
					c0.8,1,0.6,2.4-0.4,3.1c-0.3,0.3-0.8,0.4-1.2,0.4C23.2,15.2,23,15.2,22.8,15.2z M21.2,11.1c-0.1,0-0.2,0-0.3,0
					c-0.4,0-0.8,0.3-0.8,0.7c0,0.2,0.1,0.4,0.2,0.6c0.3,0.5,0.8,0.8,1.3,1c0.5,0.2,1.1,0.3,1.6,0.3c0.3,0,0.6-0.2,0.7-0.4l0,0
					c0.1-0.3,0-0.6-0.2-0.8c-0.3-0.5-0.8-0.8-1.3-1C22.1,11.2,21.6,11.1,21.2,11.1z"/>
			</g>
		</g>
	</g>
</g>
</svg>
