<?xml version="1.0" encoding="utf-8"?>
<!-- Generator: Adobe Illustrator 23.0.3, SVG Export Plug-In . SVG Version: 6.00 Build 0)  -->
<svg version="1.1" id="Layer_1" xmlns="http://www.w3.org/2000/svg" xmlns:xlink="http://www.w3.org/1999/xlink" x="0px" y="0px"
	 viewBox="0 0 50 50" style="enable-background:new 0 0 50 50;" xml:space="preserve">
<style type="text/css">
	.st0{fill:#FFFFFF;}
</style>
<g id="Billing" transform="translate(-6937.669 -12795)">
	<g id="Group_576" transform="translate(6937.669 12795)">
		<g id="Group_13" transform="translate(0 0)">
			<g id="Group_8" transform="translate(19.468 1.363)">
				<g id="Group_7">
					<path id="Path_5" class="st0" d="M29.5,10.5c0.1-4.9-3.8-8.9-8.7-8.9c-4.9-0.1-8.9,3.8-8.9,8.7s3.8,8.9,8.7,8.9
						c0,0,0.1,0,0.1,0C25.5,19.2,29.4,15.3,29.5,10.5C29.5,10.5,29.5,10.5,29.5,10.5z M20.2,16.4c-0.2,0-0.3-0.1-0.4-0.3
						c0,0,0-0.1,0-0.1v-0.6c0-0.4,0-0.4-0.4-0.5c-0.5-0.1-1-0.2-1.5-0.4c-0.4-0.2-0.4-0.3-0.3-0.7c0.1-0.3,0.2-0.6,0.2-0.9
						c0.1-0.3,0.2-0.4,0.5-0.2c0.5,0.3,1.1,0.4,1.7,0.5c0.4,0.1,0.7,0,1.1-0.1c0.4-0.2,0.7-0.6,0.5-1.1c-0.1-0.2-0.2-0.3-0.3-0.4
						c-0.2-0.2-0.4-0.3-0.6-0.4c-0.6-0.2-1.1-0.5-1.7-0.7c-0.9-0.4-1.4-1.3-1.4-2.3c0-1.1,0.8-2,1.8-2.3c0.5-0.2,0.5-0.2,0.5-0.6
						V4.9c0-0.4,0.1-0.4,0.4-0.4h0.3c0.8,0,0.8,0,0.8,0.7c0,0.5,0,0.5,0.5,0.6c0.4,0.1,0.8,0.2,1.2,0.3c0.2,0,0.3,0.2,0.2,0.4
						c0,0,0,0,0,0c-0.1,0.3-0.2,0.6-0.3,1C23,7.9,22.9,8,22.6,7.8c-0.6-0.3-1.2-0.4-1.9-0.4c-0.2,0-0.3,0-0.5,0.1
						c-0.4,0.1-0.6,0.5-0.5,0.9c0,0.2,0.1,0.3,0.3,0.4c0.2,0.2,0.5,0.3,0.8,0.5c0.5,0.2,1,0.4,1.5,0.7c1.3,0.6,1.8,2.2,1.2,3.5
						c-0.1,0.2-0.2,0.4-0.3,0.5c-0.4,0.5-0.9,0.8-1.5,0.9c-0.2,0-0.4,0.2-0.4,0.5c0,0.3,0,0.5,0,0.8c0,0.2-0.1,0.3-0.3,0.4
						c0,0,0,0-0.1,0C20.7,16.4,20.5,16.4,20.2,16.4L20.2,16.4z"/>
				</g>
			</g>
			<g id="Group_10">
				<g id="Group_9">
					<path id="Path_6" class="st0" d="M5.7,21.5c3.1,0.9,6.3,1.4,9.5,1.3c1.8,0,3.6-0.1,5.4-0.4c1.1-0.7,2.3-1.3,3.6-1.7
						c1.7-0.5,3.4-0.9,5.2-1.1v-2.3l0,0v-5.4l0,0V6.6c0-1.2-0.8-2.9-4.7-4.2c-3.1-0.9-6.3-1.4-9.5-1.3C12,0.9,8.8,1.4,5.7,2.3
						C1.8,3.6,1,5.3,1,6.5v5.4l0,0v5.4l0,0v5.5l0,0v5.4l0,0v5.3c0,1.2,0.8,2.9,4.7,4.2c3.1,0.9,6.3,1.4,9.5,1.3c0.8,0,1.5,0,2.3-0.1
						v-2.8c-0.7,0-1.5,0.1-2.3,0.1c-2.8,0.1-5.7-0.3-8.4-1.1c-2.2-0.7-2.7-1.4-2.7-1.6v-1.7c0.5,0.2,1,0.4,1.6,0.6
						c3.1,0.9,6.3,1.4,9.5,1.3c0.8,0,1.5,0,2.3-0.1v-2.8c-0.7,0-1.5,0.1-2.3,0.1c-2.8,0.1-5.7-0.3-8.4-1.1c-2.2-0.7-2.7-1.4-2.7-1.6
						v-1.7c0.5,0.2,1,0.4,1.6,0.6c3.1,0.9,6.3,1.4,9.5,1.3c0.8,0,1.5,0,2.3-0.1v-0.7c0-0.8,0.2-1.6,0.5-2.3
						c-0.9,0.1-1.8,0.1-2.8,0.1c-2.8,0.1-5.7-0.3-8.4-1.1c-2.2-0.7-2.7-1.4-2.7-1.6V21C4.6,21.1,5.1,21.3,5.7,21.5z M6.8,4.9
						c2.7-0.8,5.5-1.2,8.4-1.1c2.8-0.1,5.7,0.3,8.4,1.1c2.1,0.7,2.6,1.4,2.7,1.6v0c0,0.2-0.6,0.9-2.7,1.6C20.9,9,18,9.3,15.2,9.3
						C12.4,9.3,9.5,9,6.8,8.2C4.6,7.4,4.1,6.7,4.1,6.5C4.1,6.4,4.6,5.6,6.8,4.9L6.8,4.9z M4.1,10.1c0.5,0.2,1,0.4,1.6,0.6
						c3.1,0.9,6.3,1.4,9.5,1.3c3.2,0.1,6.4-0.4,9.5-1.3c0.5-0.2,1.1-0.4,1.6-0.6v1.7l0,0v0c0,0.2-0.6,0.9-2.7,1.6
						c-2.7,0.8-5.5,1.2-8.4,1.1c-2.8,0.1-5.7-0.3-8.4-1.1c-2.2-0.7-2.7-1.4-2.7-1.6L4.1,10.1L4.1,10.1z M4.1,15.5
						c0.5,0.2,1,0.4,1.6,0.6c3.1,0.9,6.3,1.4,9.5,1.3c3.2,0.1,6.4-0.4,9.5-1.3c0.5-0.2,1.1-0.4,1.6-0.6v1.7l0,0v0
						c0,0.2-0.6,0.9-2.7,1.6c-2.7,0.8-5.5,1.2-8.4,1.1c-2.8,0.1-5.7-0.3-8.4-1.1c-2.2-0.7-2.7-1.4-2.7-1.6L4.1,15.5L4.1,15.5z"/>
				</g>
			</g>
			<g id="Group_12" transform="translate(12.584 13.518)">
				<g id="Group_11">
					<path id="Path_7" class="st0" d="M31.7,9.9c-3.1-0.9-6.3-1.4-9.5-1.3c-3.2-0.1-6.4,0.4-9.5,1.3c-3.9,1.3-4.7,3-4.7,4.2v5.4l0,0
						v5.4l0,0v5.4c0,1.2,0.8,2.9,4.7,4.2c3.1,0.9,6.3,1.4,9.5,1.3c3.2,0.1,6.4-0.4,9.5-1.3c3.9-1.3,4.7-3,4.7-4.2v-0.1l0,0v-5.3l0,0
						v-5.4l0,0v-5.4C36.4,12.9,35.6,11.1,31.7,9.9z M13.8,12.5c2.7-0.8,5.5-1.2,8.4-1.1c2.8-0.1,5.7,0.3,8.4,1.1
						c2.1,0.7,2.6,1.4,2.7,1.6v0c0,0.2-0.6,0.9-2.7,1.6c-2.7,0.8-5.5,1.2-8.4,1.1c-2.8,0.1-5.7-0.3-8.4-1.1
						c-2.2-0.7-2.7-1.4-2.7-1.6S11.6,13.2,13.8,12.5z M30.6,31.8c-2.7,0.8-5.5,1.2-8.4,1.1c-2.8,0.1-5.7-0.3-8.4-1.1
						c-2.2-0.7-2.7-1.4-2.7-1.6v-1.7c0.5,0.2,1,0.4,1.6,0.6c3.1,0.9,6.3,1.4,9.5,1.3c3.2,0.1,6.4-0.4,9.5-1.3
						c0.5-0.2,1.1-0.4,1.6-0.6v1.7C33.3,30.4,32.8,31.1,30.6,31.8L30.6,31.8z M33.3,24.8L33.3,24.8L33.3,24.8c0,0.2-0.6,0.9-2.7,1.6
						c-2.7,0.8-5.5,1.2-8.4,1.1c-2.8,0.1-5.7-0.3-8.4-1.1c-2.2-0.7-2.7-1.4-2.7-1.6v-1.7c0.5,0.2,1,0.4,1.6,0.6
						c3.1,0.9,6.3,1.4,9.5,1.3c3.2,0.1,6.4-0.4,9.5-1.3c0.5-0.2,1.1-0.4,1.6-0.6L33.3,24.8L33.3,24.8z M33.3,19.4L33.3,19.4
						L33.3,19.4c0,0.2-0.6,0.9-2.7,1.6c-2.7,0.8-5.5,1.2-8.4,1.1c-2.8,0.1-5.7-0.3-8.4-1.1c-2.2-0.7-2.7-1.4-2.7-1.6v-1.7
						c0.5,0.2,1,0.4,1.6,0.6c3.1,0.9,6.3,1.4,9.5,1.3c3.2,0.1,6.4-0.4,9.5-1.3c0.5-0.2,1.1-0.4,1.6-0.6L33.3,19.4L33.3,19.4z"/>
				</g>
			</g>
		</g>
	</g>
</g>
</svg>
