<?xml version="1.0" encoding="utf-8"?>
<!-- Generator: Adobe Illustrator 23.0.3, SVG Export Plug-In . SVG Version: 6.00 Build 0)  -->
<svg version="1.1" id="Layer_1" xmlns="http://www.w3.org/2000/svg" xmlns:xlink="http://www.w3.org/1999/xlink" x="0px" y="0px"
	 viewBox="0 0 50 50" style="enable-background:new 0 0 50 50;" xml:space="preserve">
<style type="text/css">
	.st0{fill:#FFFFFF;}
</style>
<g id="Governance" transform="translate(-23.034 -293.502)">
	<g id="Group_25" transform="translate(23.034 293.502)">
		<path id="Path_22" class="st0" d="M26,20.9v26.5h0.8V20.8C26.6,20.9,26.3,20.9,26,20.9z"/>
		<path id="Path_23" class="st0" d="M26,19.2c1.4,0,2.5-1.1,2.5-2.5l0,0v-0.8H6.1c-2.3,0-4.1,1.9-4.1,4.1v8.3c0,1.4,1.1,2.5,2.5,2.5
			c0,0,0,0,0,0h0.8V19.2H7V49h3.3V33.3h1.7V49h3.3V19.2H26z"/>
		<path id="Path_24" class="st0" d="M26.8,1.4c0-0.2-0.2-0.4-0.4-0.4C26.2,1,26,1.2,26,1.4v12.8h0.8V1.4z"/>
		<path id="Path_25" class="st0" d="M47.9,6.8h-7v5h-2.5v1.7H48l-1.3-3.3L47.9,6.8z"/>
		<path id="Path_26" class="st0" d="M28.5,3.5h10.8v6.6H28.5V3.5z"/>
		<path id="Path_27" class="st0" d="M14.4,10.9c0,1.8-1.5,3.3-3.3,3.3s-3.3-1.5-3.3-3.3c0-1.8,1.5-3.3,3.3-3.3c0,0,0,0,0,0
			C12.9,7.6,14.4,9.1,14.4,10.9z"/>
	</g>
</g>
</svg>
