<?xml version="1.0" encoding="utf-8"?>
<!-- Generator: Adobe Illustrator 23.0.3, SVG Export Plug-In . SVG Version: 6.00 Build 0)  -->
<svg version="1.1" id="Layer_1" xmlns="http://www.w3.org/2000/svg" xmlns:xlink="http://www.w3.org/1999/xlink" x="0px" y="0px"
	 viewBox="0 0 50 50" style="enable-background:new 0 0 50 50;" xml:space="preserve">
<style type="text/css">
	.st0{fill:#00A8E7;}
</style>
<g id="help" transform="translate(-23.375 -448.44)">
	<g id="Group_31" transform="translate(23.375 448.44)">
		<g id="Group_30" transform="translate(0 0)">
			<g id="Group_29">
				<g id="Group_28">
					<circle id="Ellipse_1" class="st0" cx="25" cy="36.5" r="2.3"/>
					<path id="Path_32" class="st0" d="M25,1C11.7,1,1,11.7,1,25s10.7,24,24,24s24-10.7,24-24C49,11.8,38.3,1,25,1C25,1,25,1,25,1z
						 M25,45.2C13.8,45.2,4.8,36.2,4.8,25S13.8,4.7,25,4.7S45.3,13.8,45.3,25C45.3,36.2,36.2,45.2,25,45.2C25,45.2,25,45.2,25,45.2z
						"/>
					<path id="Path_33" class="st0" d="M25,13.2c-4.1,0-7.4,3.3-7.4,7.4c-0.1,1,0.7,1.9,1.7,2c1,0.1,1.9-0.7,2-1.7
						c0-0.1,0-0.2,0-0.3c0-2,1.7-3.7,3.7-3.7c2,0,3.7,1.7,3.7,3.7c0,2-1.7,3.7-3.7,3.7c0,0,0,0,0,0c-1,0-1.9,0.8-1.9,1.9l0,0v4.6
						c0.1,1,1,1.8,2,1.7c0.9-0.1,1.6-0.8,1.7-1.7v-3c4-1,6.3-5.1,5.3-9C31.3,15.4,28.4,13.2,25,13.2L25,13.2z"/>
				</g>
			</g>
		</g>
	</g>
</g>
</svg>
