<?xml version="1.0" encoding="utf-8"?>
<!-- Generator: Adobe Illustrator 23.0.3, SVG Export Plug-In . SVG Version: 6.00 Build 0)  -->
<svg version="1.1" id="Layer_1" xmlns="http://www.w3.org/2000/svg" xmlns:xlink="http://www.w3.org/1999/xlink" x="0px" y="0px"
	 viewBox="0 0 200 200" style="enable-background:new 0 0 200 200;" xml:space="preserve">
<style type="text/css">
	.Drop_x0020_Shadow{fill:none;}
	.Outer_x0020_Glow_x0020_5_x0020_pt{fill:none;}
	.Blue_x0020_Neon{fill:none;stroke:#8AACDA;stroke-width:7;stroke-linecap:round;stroke-linejoin:round;}
	.Chrome_x0020_Highlight{fill:url(#SVGID_1_);stroke:#FFFFFF;stroke-width:0.3629;stroke-miterlimit:1;}
	.Jive_GS{fill:#FEDD00;}
	.Alyssa_GS{fill:#A7D0E3;}
	.st0{fill:#26A6DE;}
	.st1{fill:#225A89;}
	.st2{fill:#636464;}
	.st3{fill:#FFFFFF;}
	.st4{fill:#0696CC;}
</style>
<linearGradient id="SVGID_1_" gradientUnits="userSpaceOnUse" x1="0" y1="0" x2="6.123234e-17" y2="-1">
	<stop  offset="0" style="stop-color:#656666"/>
	<stop  offset="0.618" style="stop-color:#1A1A1A"/>
	<stop  offset="0.6292" style="stop-color:#545554"/>
	<stop  offset="0.9831" style="stop-color:#3E3E3E"/>
</linearGradient>
<g>
	<g>
		<g>
			<path class="st0" d="M26.4,107.6h-5.6L9,135.3h6.2l4.6-11.1l0.1-0.5h0l0-0.1l0.1-0.2l0,0l3.5-8.7l3.6,8.7l0,0l0.2,0.4h0l0.1,0.2
				l0,0l4.4,11h6.3L26.4,107.6z"/>
			<path class="st1" d="M180.2,107.6h-5.6l-11.8,27.7h6.2l4.6-11.1l0.1-0.5h0l0-0.1l0.1-0.2l0,0l3.5-8.7l3.6,8.7l0,0l0.2,0.4h0
				l0.1,0.2l0,0l4.4,11h6.3L180.2,107.6z"/>
			<path class="st1" d="M42.4,107.8v5.6h8.4v21.9h6.1v-21.9h8.4v-5.6H42.4z"/>
			<path class="st1" d="M89.1,107.8v10.9H77.9v-10.9h-6.1v27.5h6.1v-11h11.2v11h6.1v-27.5H89.1z"/>
			<path class="st1" d="M109.7,129.9v-5.8h13v-5.4h-13v-5.6h14.8v-5.4h-20.7v27.5h20.9v-5.4H109.7z"/>
			<path class="st1" d="M150.5,107.8v17l-12.9-17H132v27.5h6v-17.5l13.3,17.5h5.2v-27.5H150.5z"/>
		</g>
	</g>
	<g>
		<path class="st2" d="M62.8,146.2c0,0.6-0.1,1.2-0.3,1.7c-0.2,0.5-0.4,0.9-0.7,1.2c-0.3,0.3-0.7,0.6-1.2,0.7
			c-0.4,0.2-0.9,0.2-1.5,0.2c-0.5,0-1-0.1-1.5-0.2c-0.4-0.2-0.8-0.4-1.2-0.7c-0.3-0.3-0.6-0.7-0.7-1.2c-0.2-0.5-0.3-1-0.3-1.6v-5.1
			h1v5.1c0,1,0.2,1.7,0.7,2.2c0.5,0.5,1.1,0.8,2,0.8c0.8,0,1.5-0.2,1.9-0.7c0.5-0.5,0.7-1.2,0.7-2.2v-5.1h1V146.2z"/>
		<path class="st2" d="M68.3,143.9c0.1,0.2,0.2,0.3,0.4,0.5c0.2,0.1,0.4,0.3,0.7,0.4c0.3,0.1,0.7,0.2,1.2,0.3c1,0.2,1.7,0.5,2.2,0.9
			s0.7,0.9,0.7,1.6c0,0.4-0.1,0.7-0.2,1c-0.1,0.3-0.4,0.6-0.6,0.8c-0.3,0.2-0.6,0.4-0.9,0.5c-0.4,0.1-0.8,0.2-1.2,0.2
			c-0.7,0-1.3-0.1-1.9-0.3c-0.6-0.2-1.1-0.6-1.7-1.1l0.6-0.7c0.5,0.4,0.9,0.7,1.4,0.9c0.5,0.2,1,0.3,1.6,0.3c0.6,0,1.1-0.1,1.4-0.4
			c0.4-0.3,0.5-0.6,0.5-1.1c0-0.2,0-0.4-0.1-0.6c-0.1-0.2-0.2-0.3-0.4-0.4c-0.2-0.1-0.4-0.3-0.7-0.4c-0.3-0.1-0.7-0.2-1.1-0.3
			c-0.5-0.1-0.9-0.2-1.3-0.4c-0.4-0.1-0.7-0.3-0.9-0.5c-0.2-0.2-0.4-0.4-0.5-0.7c-0.1-0.3-0.2-0.6-0.2-1c0-0.4,0.1-0.7,0.2-1
			c0.1-0.3,0.3-0.5,0.6-0.8s0.6-0.4,0.9-0.5c0.4-0.1,0.7-0.2,1.2-0.2c0.6,0,1.2,0.1,1.7,0.3c0.5,0.2,0.9,0.4,1.4,0.8l-0.6,0.8
			c-0.4-0.3-0.8-0.6-1.2-0.7c-0.4-0.2-0.8-0.2-1.3-0.2c-0.3,0-0.5,0-0.8,0.1c-0.2,0.1-0.4,0.2-0.6,0.3c-0.2,0.1-0.3,0.3-0.4,0.5
			c-0.1,0.2-0.1,0.4-0.1,0.6C68.2,143.5,68.2,143.7,68.3,143.9z"/>
		<path class="st2" d="M80.9,149.9h-1V142h-3v-0.9h6.9v0.9h-3V149.9z"/>
		<path class="st2" d="M100.1,149.7c-0.6,0.3-1.3,0.4-2,0.4c-0.7,0-1.3-0.1-1.9-0.4c-0.5-0.2-1-0.6-1.4-1c-0.4-0.4-0.7-0.9-0.9-1.4
			c-0.2-0.6-0.3-1.1-0.3-1.8c0-0.6,0.1-1.2,0.3-1.7c0.2-0.6,0.5-1,0.9-1.5c0.4-0.4,0.8-0.8,1.4-1c0.5-0.2,1.1-0.4,1.8-0.4
			c0.4,0,0.7,0,1,0.1c0.3,0.1,0.6,0.1,0.9,0.2c0.3,0.1,0.5,0.2,0.7,0.4c0.2,0.1,0.5,0.3,0.7,0.5l-0.6,0.8c-0.2-0.2-0.3-0.3-0.5-0.4
			c-0.2-0.1-0.4-0.2-0.6-0.3c-0.2-0.1-0.4-0.2-0.7-0.2c-0.3-0.1-0.5-0.1-0.8-0.1c-0.5,0-0.9,0.1-1.3,0.3c-0.4,0.2-0.8,0.5-1.1,0.8
			c-0.3,0.3-0.5,0.7-0.7,1.2c-0.2,0.4-0.3,0.9-0.3,1.4c0,0.5,0.1,1,0.2,1.5c0.2,0.4,0.4,0.8,0.7,1.2c0.3,0.3,0.7,0.6,1.1,0.8
			c0.4,0.2,0.9,0.3,1.4,0.3c0.5,0,1-0.1,1.4-0.3c0.4-0.2,0.8-0.4,1.1-0.6v-2.2H98v-0.9h3.6v3.5C101.2,149.1,100.7,149.4,100.1,149.7
			z"/>
		<path class="st2" d="M106.1,149.9v-9.2h1v9.2H106.1z"/>
		<path class="st2" d="M117.7,148c-0.2,0.4-0.4,0.8-0.7,1.1c-0.3,0.3-0.7,0.6-1.1,0.7c-0.4,0.2-0.9,0.3-1.4,0.3
			c-0.5,0-0.9-0.1-1.3-0.3c-0.4-0.2-0.8-0.4-1.1-0.7c-0.3-0.3-0.5-0.7-0.7-1.1c-0.2-0.4-0.3-0.8-0.3-1.3c0-0.5,0.1-0.9,0.3-1.3
			s0.4-0.8,0.7-1.1c0.3-0.3,0.7-0.6,1.1-0.7c0.4-0.2,0.9-0.3,1.4-0.3c0.5,0,0.9,0.1,1.4,0.3c0.4,0.2,0.8,0.4,1.1,0.7
			c0.3,0.3,0.5,0.7,0.7,1.1c0.2,0.4,0.3,0.8,0.3,1.3C117.9,147.1,117.9,147.6,117.7,148z M116.8,145.7c-0.1-0.3-0.3-0.6-0.5-0.8
			c-0.2-0.2-0.5-0.4-0.8-0.5c-0.3-0.1-0.6-0.2-1-0.2c-0.4,0-0.7,0.1-1,0.2c-0.3,0.1-0.5,0.3-0.7,0.5c-0.2,0.2-0.4,0.5-0.5,0.8
			c-0.1,0.3-0.2,0.6-0.2,1c0,0.4,0.1,0.7,0.2,1c0.1,0.3,0.3,0.6,0.5,0.8c0.2,0.2,0.5,0.4,0.8,0.5c0.3,0.1,0.6,0.2,1,0.2
			c0.4,0,0.7-0.1,1-0.2c0.3-0.1,0.5-0.3,0.8-0.5c0.2-0.2,0.4-0.5,0.5-0.8c0.1-0.3,0.2-0.6,0.2-1C116.9,146.3,116.9,146,116.8,145.7z
			"/>
		<path class="st2" d="M128.3,148.1c-0.2,0.4-0.4,0.8-0.7,1.1c-0.3,0.3-0.6,0.5-1,0.7c-0.4,0.2-0.8,0.2-1.2,0.2
			c-0.3,0-0.6,0-0.8-0.1c-0.3-0.1-0.5-0.2-0.7-0.3c-0.2-0.1-0.4-0.3-0.5-0.4c-0.2-0.2-0.3-0.3-0.4-0.5v1.2h-1v-9.2h1v4
			c0.1-0.2,0.3-0.4,0.4-0.6c0.2-0.2,0.3-0.3,0.5-0.5c0.2-0.1,0.4-0.2,0.7-0.3c0.2-0.1,0.5-0.1,0.8-0.1c0.4,0,0.8,0.1,1.1,0.2
			c0.4,0.2,0.7,0.4,1,0.7c0.3,0.3,0.5,0.6,0.7,1.1c0.2,0.4,0.3,0.9,0.3,1.4S128.4,147.7,128.3,148.1z M127.3,145.6
			c-0.1-0.3-0.3-0.6-0.5-0.8s-0.5-0.4-0.7-0.5c-0.3-0.1-0.6-0.2-0.9-0.2c-0.3,0-0.6,0.1-0.9,0.2c-0.3,0.1-0.5,0.3-0.8,0.5
			c-0.2,0.2-0.4,0.5-0.5,0.8c-0.1,0.3-0.2,0.7-0.2,1c0,0.4,0.1,0.7,0.2,1c0.1,0.3,0.3,0.6,0.5,0.8c0.2,0.2,0.5,0.4,0.8,0.5
			c0.3,0.1,0.6,0.2,0.9,0.2c0.3,0,0.6-0.1,0.9-0.2c0.3-0.1,0.5-0.3,0.7-0.5c0.2-0.2,0.4-0.5,0.5-0.8c0.1-0.3,0.2-0.7,0.2-1.1
			C127.5,146.3,127.5,145.9,127.3,145.6z"/>
		<path class="st2" d="M133.9,144.3c-0.3,0.1-0.6,0.2-0.9,0.3l-0.3-0.8c0.4-0.2,0.7-0.3,1.1-0.4c0.4-0.1,0.8-0.1,1.3-0.1
			c0.9,0,1.6,0.2,2,0.7c0.5,0.4,0.7,1.1,0.7,2v4h-0.9v-1c-0.2,0.3-0.5,0.6-0.9,0.8c-0.4,0.2-0.9,0.3-1.4,0.3c-0.3,0-0.6,0-0.9-0.1
			c-0.3-0.1-0.5-0.2-0.8-0.4c-0.2-0.2-0.4-0.4-0.6-0.6c-0.1-0.3-0.2-0.5-0.2-0.9c0-0.3,0.1-0.6,0.2-0.9c0.1-0.3,0.3-0.5,0.6-0.7
			c0.2-0.2,0.5-0.3,0.9-0.4c0.3-0.1,0.7-0.1,1.1-0.1c0.4,0,0.8,0,1.1,0.1c0.3,0.1,0.6,0.1,0.9,0.2V146c0-0.6-0.2-1-0.5-1.3
			c-0.3-0.3-0.8-0.4-1.4-0.4C134.5,144.2,134.2,144.2,133.9,144.3z M133.6,147c-0.3,0.2-0.5,0.6-0.5,1c0,0.2,0,0.4,0.1,0.6
			c0.1,0.2,0.2,0.3,0.4,0.4c0.2,0.1,0.3,0.2,0.5,0.3c0.2,0.1,0.4,0.1,0.6,0.1c0.3,0,0.6,0,0.8-0.1c0.3-0.1,0.5-0.2,0.7-0.4
			c0.2-0.2,0.4-0.3,0.5-0.6c0.1-0.2,0.2-0.5,0.2-0.7v-0.6c-0.2-0.1-0.5-0.1-0.8-0.2c-0.3-0.1-0.7-0.1-1.1-0.1
			C134.4,146.6,133.9,146.7,133.6,147z"/>
		<path class="st2" d="M142.2,149.9v-9.2h1v9.2H142.2z"/>
	</g>
	<g>
		<path class="st1" d="M137.9,84.5c0,1.7-0.3,3.4-0.7,5c-0.3,1-0.6,1.9-1.1,2.7c-0.9,1.8-2.1,3.5-3.5,4.9c-3.2,3.2-7.7,5.2-12.6,5.2
			c-2.2,0-4.3-0.4-6.2-1.1c-0.6-0.2-1.2-0.5-1.7-0.7c-0.5-0.3-1.1-0.6-1.6-0.9c0,0,0,0,0,0c-0.5,0.2-0.9,0.5-1.4,0.7h0
			c-0.5,0.2-1,0.4-1.5,0.5c-1.7,0.5-3.5,0.8-5.4,0.8c-0.5,0-1,0-1.5-0.1c-0.1,0-0.2,0-0.4,0c0,0,0,0-0.1,0c0,0-0.1,0-0.1,0V88.3h1.3
			l-2-3.8l0-0.1l-2,3.8h1.4v13c-2.5-0.4-4.8-1.4-6.8-2.8c-3,2.4-6.9,3.8-11.1,3.8c-9.9,0-17.9-8-17.9-17.9c0-9.9,8-17.9,17.9-17.9
			c0.5,0,0.9,0,1.4,0.1C82.7,57.4,90,50,99.2,49.5v16.6L85.4,92.5h7l7.1-13.7l7.4,14.2h7L99.7,66.1V49.5c0.2,0,0.3,0,0.5,0
			c2.1,0,4.1,0.4,6,1c0.3,0.1,0.5,0.2,0.8,0.3c0.5,0.2,1.1,0.5,1.5,0.7c0.5,0.3,1,0.6,1.5,0.9c0.9,0.6,1.8,1.3,2.6,2.1
			c2.6,2.5,4.5,5.9,5.1,9.6c0.2,0.9,0.3,1.7,0.3,2.6c0.6-0.1,1.3-0.1,1.9-0.1c4.9,0,9.4,2,12.6,5.2c1.4,1.4,2.6,3.1,3.5,4.9
			c0.5,0.9,0.8,1.9,1.1,2.9c0.1,0.3,0.1,0.5,0.2,0.8c0.2,0.7,0.3,1.3,0.3,2C137.8,83.1,137.9,83.8,137.9,84.5z"/>
		<path class="st3" d="M92.4,98.7L92.4,98.7z"/>
		<path class="st4" d="M137.9,84.5c0,1.7-0.2,3.4-0.7,5c-0.3,1-0.6,1.9-1.1,2.7c-0.9,1.8-2.1,3.5-3.5,4.9c-3.2,3.2-7.7,5.2-12.6,5.2
			c-2.2,0-4.3-0.4-6.2-1.1c-0.6-0.2-1.2-0.5-1.7-0.7c-0.5-0.3-1.1-0.5-1.6-0.9c0,0,0,0,0,0c-0.5,0.2-0.9,0.5-1.4,0.7h0
			c-0.5,0.2-1,0.4-1.5,0.5c-1.7,0.5-3.5,0.8-5.4,0.8c-0.5,0-1,0-1.5-0.1c-0.1,0-0.2,0-0.4,0c0,0,0,0-0.1,0c0,0-0.1,0-0.1,0
			c-0.1,0-0.2,0-0.3,0c0.1,0,0.2,0,0.3,0V88.3h1.3l-2-3.8v-5.8l7.4,14.2h7L99.7,66.1V49.5c0.2,0,0.3,0,0.5,0c2.1,0,4.1,0.4,6,1
			c0.3,0.1,0.5,0.2,0.8,0.3c0.5,0.2,1.1,0.5,1.5,0.7c0.5,0.3,1,0.6,1.5,0.9c0.9,0.6,1.8,1.3,2.6,2.1c2.6,2.5,4.5,5.9,5.1,9.6
			c0.1,0.9,0.2,1.7,0.3,2.6h0c0.6-0.1,1.3-0.1,1.9-0.1c4.9,0,9.4,2,12.6,5.2c1.4,1.4,2.6,3.1,3.5,4.9c0.5,0.9,0.8,1.9,1.1,2.9
			c0.1,0.3,0.1,0.5,0.2,0.8c0.2,0.7,0.3,1.3,0.3,2C137.8,83.1,137.9,83.8,137.9,84.5z"/>
		<path class="st3" d="M100.1,101.5L100.1,101.5c-0.1,0-0.2,0-0.3,0C99.9,101.5,100,101.5,100.1,101.5z"/>
		<g>
			<path class="st3" d="M101.4,88.3h-1.3v13.2c-0.1,0-0.2,0-0.3,0c0,0,0,0,0,0c-0.1,0-0.2,0-0.3,0v0c-0.2,0-0.4-0.1-0.6-0.1v-13
				h-1.4l2-3.8l0,0.1L101.4,88.3z"/>
		</g>
		<g>
			<path class="st3" d="M113.8,93h-7l-7.4-14.2l-7.1,13.7h-7l13.8-26.4V49.5c0.1,0,0.2,0,0.2,0c0.1,0,0.2,0,0.3,0v16.6L113.8,93z"/>
		</g>
	</g>
</g>
<g>
</g>
<g>
</g>
<g>
</g>
<g>
</g>
<g>
</g>
<g>
</g>
<g>
</g>
<g>
</g>
<g>
</g>
<g>
</g>
<g>
</g>
<g>
</g>
<g>
</g>
<g>
</g>
<g>
</g>
</svg>
