<svg xmlns="http://www.w3.org/2000/svg" width="108.061" height="33.695" viewBox="0 0 108.061 33.695">
  <g id="logo_white" transform="translate(-95.286 -11.721)">
    <path id="Path_28" data-name="Path 28" d="M31.077,45.491c3.128-5.174,6.2-10.256,9.3-15.388-2.326-.809-3.364-.454-4.424,1.3-2.693,4.448-5.425,8.872-8.054,13.357-.63,1.075-1.446.8-2.566.823,3.174-5.255,11.366-18.1,14.485-23.267l-.287-.082c-2.195-.649-3.021-.373-4.137,1.449-2.673,4.362-10.468,16.466-13.077,20.866a1.4,1.4,0,0,1-1.891.693c-4.7-1.319-7.4-6.967-5.563-11.693a9.027,9.027,0,0,1,4.869-5.1,1.214,1.214,0,0,0,.883-1.373,14.067,14.067,0,0,1,9.7-14.385,13.9,13.9,0,0,1,17.322,7.7,1.676,1.676,0,0,1-.118,1.33C42.939,29.327,38.3,36.9,33.741,44.528,33.1,45.594,32.34,45.741,31.077,45.491Z" transform="translate(81 -0.181)" fill="#fff"/>
    <path id="Path_29" data-name="Path 29" d="M36.888,45.5c1.672-2.774,3.163-5.26,4.668-7.738,2.932-4.827,5.915-9.623,8.776-14.492A1.862,1.862,0,0,1,52.91,22.3,11.966,11.966,0,0,1,59.537,39.52,11.541,11.541,0,0,1,48.985,45.5h-12.1Z" transform="translate(81 -0.181)" fill="#fff"/>
    <text id="ATHENA" transform="translate(148.347 36.689)" fill="#fff" font-size="14.191" font-family="Roboto-Regular, Roboto"><tspan x="0" y="0">ATHENA</tspan></text>
  </g>
</svg>
