<?xml version="1.0" encoding="utf-8"?>
<!-- Generator: Adobe Illustrator 23.0.3, SVG Export Plug-In . SVG Version: 6.00 Build 0)  -->
<svg version="1.1" id="Layer_1" xmlns="http://www.w3.org/2000/svg" xmlns:xlink="http://www.w3.org/1999/xlink" x="0px" y="0px"
	 viewBox="0 0 185.5 102.9" style="enable-background:new 0 0 185.5 102.9;" xml:space="preserve">
<style type="text/css">
	.st0{fill:#26A6DE;}
	.st1{fill:#225A89;}
	.st2{fill:#636464;}
	.st3{fill:#FFFFFF;}
	.st4{fill:#0696CC;}
</style>
<g>
	<g>
		<g>
			<path class="st0" d="M19.2,58.7h-5.6L1.8,86.4H8l4.6-11.1l0.1-0.5l0,0v-0.1l0.1-0.2l0,0l3.5-8.7l3.6,8.7l0,0l0.2,0.4l0,0l0.1,0.2
				l0,0l4.4,11h6.3L19.2,58.7z"/>
			<path class="st1" d="M173,58.7h-5.6l-11.8,27.7h6.2l4.6-11.1l0.1-0.5l0,0v-0.1l0.1-0.2l0,0l3.5-8.7l3.6,8.7l0,0l0.2,0.4l0,0
				l0.1,0.2l0,0l4.4,11h6.3L173,58.7z"/>
			<path class="st1" d="M35.2,58.9v5.6h8.4v21.9h6.1V64.5h8.4v-5.6H35.2z"/>
			<path class="st1" d="M81.9,58.9v10.9H70.7V58.9h-6.1v27.5h6.1v-11h11.2v11H88V58.9H81.9z"/>
			<path class="st1" d="M102.5,81v-5.8h13v-5.4h-13v-5.6h14.8v-5.4H96.6v27.5h20.9v-5.4h-15V81z"/>
			<path class="st1" d="M143.3,58.9v17l-12.9-17h-5.6v27.5h6V68.9l13.3,17.5h5.2V58.9H143.3z"/>
		</g>
	</g>
	<g>
		<path class="st2" d="M55.6,97.3c0,0.6-0.1,1.2-0.3,1.7s-0.4,0.9-0.7,1.2s-0.7,0.6-1.2,0.7c-0.4,0.2-0.9,0.2-1.5,0.2
			c-0.5,0-1-0.1-1.5-0.2c-0.4-0.2-0.8-0.4-1.2-0.7c-0.3-0.3-0.6-0.7-0.7-1.2c-0.2-0.5-0.3-1-0.3-1.6v-5.1h1v5.1c0,1,0.2,1.7,0.7,2.2
			s1.1,0.8,2,0.8c0.8,0,1.5-0.2,1.9-0.7c0.5-0.5,0.7-1.2,0.7-2.2v-5.1h1L55.6,97.3L55.6,97.3z"/>
		<path class="st2" d="M61.1,95c0.1,0.2,0.2,0.3,0.4,0.5c0.2,0.1,0.4,0.3,0.7,0.4c0.3,0.1,0.7,0.2,1.2,0.3c1,0.2,1.7,0.5,2.2,0.9
			s0.7,0.9,0.7,1.6c0,0.4-0.1,0.7-0.2,1s-0.4,0.6-0.6,0.8c-0.3,0.2-0.6,0.4-0.9,0.5c-0.4,0.1-0.8,0.2-1.2,0.2
			c-0.7,0-1.3-0.1-1.9-0.3s-1.1-0.6-1.7-1.1l0.6-0.7c0.5,0.4,0.9,0.7,1.4,0.9s1,0.3,1.6,0.3s1.1-0.1,1.4-0.4
			c0.4-0.3,0.5-0.6,0.5-1.1c0-0.2,0-0.4-0.1-0.6c-0.1-0.2-0.2-0.3-0.4-0.4c-0.2-0.1-0.4-0.3-0.7-0.4c-0.3-0.1-0.7-0.2-1.1-0.3
			c-0.5-0.1-0.9-0.2-1.3-0.4c-0.4-0.1-0.7-0.3-0.9-0.5c-0.2-0.2-0.4-0.4-0.5-0.7s-0.2-0.6-0.2-1s0.1-0.7,0.2-1s0.3-0.5,0.6-0.8
			s0.6-0.4,0.9-0.5c0.4-0.1,0.7-0.2,1.2-0.2c0.6,0,1.2,0.1,1.7,0.3s0.9,0.4,1.4,0.8l-0.6,0.8c-0.4-0.3-0.8-0.6-1.2-0.7
			C63.9,93,63.5,93,63,93c-0.3,0-0.5,0-0.8,0.1c-0.2,0.1-0.4,0.2-0.6,0.3s-0.3,0.3-0.4,0.5s-0.1,0.4-0.1,0.6
			C61,94.6,61,94.8,61.1,95z"/>
		<path class="st2" d="M73.7,101h-1v-7.9h-3v-0.9h6.9v0.9h-3L73.7,101L73.7,101z"/>
		<path class="st2" d="M92.9,100.8c-0.6,0.3-1.3,0.4-2,0.4s-1.3-0.1-1.9-0.4c-0.5-0.2-1-0.6-1.4-1s-0.7-0.9-0.9-1.4
			c-0.2-0.6-0.3-1.1-0.3-1.8c0-0.6,0.1-1.2,0.3-1.7c0.2-0.6,0.5-1,0.9-1.5c0.4-0.4,0.8-0.8,1.4-1c0.5-0.2,1.1-0.4,1.8-0.4
			c0.4,0,0.7,0,1,0.1s0.6,0.1,0.9,0.2c0.3,0.1,0.5,0.2,0.7,0.4c0.2,0.1,0.5,0.3,0.7,0.5L93.5,94c-0.2-0.2-0.3-0.3-0.5-0.4
			c-0.2-0.1-0.4-0.2-0.6-0.3s-0.4-0.2-0.7-0.2C91.4,93,91.2,93,90.9,93c-0.5,0-0.9,0.1-1.3,0.3s-0.8,0.5-1.1,0.8
			c-0.3,0.3-0.5,0.7-0.7,1.2c-0.2,0.4-0.3,0.9-0.3,1.4s0.1,1,0.2,1.5c0.2,0.4,0.4,0.8,0.7,1.2c0.3,0.3,0.7,0.6,1.1,0.8
			s0.9,0.3,1.4,0.3s1-0.1,1.4-0.3s0.8-0.4,1.1-0.6v-2.2h-2.6v-0.9h3.6v3.5C94,100.2,93.5,100.5,92.9,100.8z"/>
		<path class="st2" d="M98.9,101v-9.2h1v9.2H98.9z"/>
		<path class="st2" d="M110.5,99.1c-0.2,0.4-0.4,0.8-0.7,1.1c-0.3,0.3-0.7,0.6-1.1,0.7c-0.4,0.2-0.9,0.3-1.4,0.3s-0.9-0.1-1.3-0.3
			s-0.8-0.4-1.1-0.7c-0.3-0.3-0.5-0.7-0.7-1.1c-0.2-0.4-0.3-0.8-0.3-1.3s0.1-0.9,0.3-1.3s0.4-0.8,0.7-1.1c0.3-0.3,0.7-0.6,1.1-0.7
			c0.4-0.2,0.9-0.3,1.4-0.3s0.9,0.1,1.4,0.3c0.4,0.2,0.8,0.4,1.1,0.7c0.3,0.3,0.5,0.7,0.7,1.1c0.2,0.4,0.3,0.8,0.3,1.3
			C110.7,98.2,110.7,98.7,110.5,99.1z M109.6,96.8c-0.1-0.3-0.3-0.6-0.5-0.8s-0.5-0.4-0.8-0.5s-0.6-0.2-1-0.2s-0.7,0.1-1,0.2
			c-0.3,0.1-0.5,0.3-0.7,0.5s-0.4,0.5-0.5,0.8s-0.2,0.6-0.2,1s0.1,0.7,0.2,1s0.3,0.6,0.5,0.8s0.5,0.4,0.8,0.5s0.6,0.2,1,0.2
			s0.7-0.1,1-0.2c0.3-0.1,0.5-0.3,0.8-0.5c0.2-0.2,0.4-0.5,0.5-0.8s0.2-0.6,0.2-1C109.7,97.4,109.7,97.1,109.6,96.8z"/>
		<path class="st2" d="M121.1,99.2c-0.2,0.4-0.4,0.8-0.7,1.1c-0.3,0.3-0.6,0.5-1,0.7s-0.8,0.2-1.2,0.2c-0.3,0-0.6,0-0.8-0.1
			c-0.3-0.1-0.5-0.2-0.7-0.3s-0.4-0.3-0.5-0.4c-0.2-0.2-0.3-0.3-0.4-0.5v1.2h-1v-9.2h1v4c0.1-0.2,0.3-0.4,0.4-0.6
			c0.2-0.2,0.3-0.3,0.5-0.5c0.2-0.1,0.4-0.2,0.7-0.3c0.2-0.1,0.5-0.1,0.8-0.1c0.4,0,0.8,0.1,1.1,0.2c0.4,0.2,0.7,0.4,1,0.7
			s0.5,0.6,0.7,1.1c0.2,0.4,0.3,0.9,0.3,1.4S121.2,98.8,121.1,99.2z M120.1,96.7c-0.1-0.3-0.3-0.6-0.5-0.8s-0.5-0.4-0.7-0.5
			c-0.3-0.1-0.6-0.2-0.9-0.2s-0.6,0.1-0.9,0.2c-0.3,0.1-0.5,0.3-0.8,0.5c-0.2,0.2-0.4,0.5-0.5,0.8s-0.2,0.7-0.2,1
			c0,0.4,0.1,0.7,0.2,1s0.3,0.6,0.5,0.8s0.5,0.4,0.8,0.5s0.6,0.2,0.9,0.2s0.6-0.1,0.9-0.2c0.3-0.1,0.5-0.3,0.7-0.5s0.4-0.5,0.5-0.8
			s0.2-0.7,0.2-1.1C120.3,97.4,120.3,97,120.1,96.7z"/>
		<path class="st2" d="M126.7,95.4c-0.3,0.1-0.6,0.2-0.9,0.3l-0.3-0.8c0.4-0.2,0.7-0.3,1.1-0.4c0.4-0.1,0.8-0.1,1.3-0.1
			c0.9,0,1.6,0.2,2,0.7c0.5,0.4,0.7,1.1,0.7,2v4h-0.9v-1c-0.2,0.3-0.5,0.6-0.9,0.8s-0.9,0.3-1.4,0.3c-0.3,0-0.6,0-0.9-0.1
			c-0.3-0.1-0.5-0.2-0.8-0.4c-0.2-0.2-0.4-0.4-0.6-0.6c-0.1-0.3-0.2-0.5-0.2-0.9c0-0.3,0.1-0.6,0.2-0.9c0.1-0.3,0.3-0.5,0.6-0.7
			c0.2-0.2,0.5-0.3,0.9-0.4c0.3-0.1,0.7-0.1,1.1-0.1c0.4,0,0.8,0,1.1,0.1s0.6,0.1,0.9,0.2v-0.3c0-0.6-0.2-1-0.5-1.3
			s-0.8-0.4-1.4-0.4C127.3,95.3,127,95.3,126.7,95.4z M126.4,98.1c-0.3,0.2-0.5,0.6-0.5,1c0,0.2,0,0.4,0.1,0.6
			c0.1,0.2,0.2,0.3,0.4,0.4c0.2,0.1,0.3,0.2,0.5,0.3s0.4,0.1,0.6,0.1c0.3,0,0.6,0,0.8-0.1c0.3-0.1,0.5-0.2,0.7-0.4s0.4-0.3,0.5-0.6
			c0.1-0.2,0.2-0.5,0.2-0.7v-0.6c-0.2-0.1-0.5-0.1-0.8-0.2c-0.3-0.1-0.7-0.1-1.1-0.1C127.2,97.7,126.7,97.8,126.4,98.1z"/>
		<path class="st2" d="M135,101v-9.2h1v9.2H135z"/>
	</g>
	<g>
		<path class="st1" d="M130.7,35.6c0,1.7-0.3,3.4-0.7,5c-0.3,1-0.6,1.9-1.1,2.7c-0.9,1.8-2.1,3.5-3.5,4.9c-3.2,3.2-7.7,5.2-12.6,5.2
			c-2.2,0-4.3-0.4-6.2-1.1c-0.6-0.2-1.2-0.5-1.7-0.7c-0.5-0.3-1.1-0.6-1.6-0.9l0,0c-0.5,0.2-0.9,0.5-1.4,0.7l0,0
			c-0.5,0.2-1,0.4-1.5,0.5c-1.7,0.5-3.5,0.8-5.4,0.8c-0.5,0-1,0-1.5-0.1c-0.1,0-0.2,0-0.4,0c0,0,0,0-0.1,0h-0.1V39.4h1.3l-2-3.8
			v-0.1l-2,3.8h1.4v13c-2.5-0.4-4.8-1.4-6.8-2.8c-3,2.4-6.9,3.8-11.1,3.8c-9.9,0-17.9-8-17.9-17.9s8-17.9,17.9-17.9
			c0.5,0,0.9,0,1.4,0.1c0.4-9.1,7.7-16.5,16.9-17v16.6L78.2,43.6h7l7.1-13.7l7.4,14.2h7L92.5,17.2V0.6c0.2,0,0.3,0,0.5,0
			c2.1,0,4.1,0.4,6,1c0.3,0.1,0.5,0.2,0.8,0.3c0.5,0.2,1.1,0.5,1.5,0.7c0.5,0.3,1,0.6,1.5,0.9c0.9,0.6,1.8,1.3,2.6,2.1
			c2.6,2.5,4.5,5.9,5.1,9.6c0.2,0.9,0.3,1.7,0.3,2.6c0.6-0.1,1.3-0.1,1.9-0.1c4.9,0,9.4,2,12.6,5.2c1.4,1.4,2.6,3.1,3.5,4.9
			c0.5,0.9,0.8,1.9,1.1,2.9c0.1,0.3,0.1,0.5,0.2,0.8c0.2,0.7,0.3,1.3,0.3,2C130.6,34.2,130.7,34.9,130.7,35.6z"/>
		<path class="st3" d="M85.2,49.8L85.2,49.8z"/>
		<path class="st4" d="M130.7,35.6c0,1.7-0.2,3.4-0.7,5c-0.3,1-0.6,1.9-1.1,2.7c-0.9,1.8-2.1,3.5-3.5,4.9c-3.2,3.2-7.7,5.2-12.6,5.2
			c-2.2,0-4.3-0.4-6.2-1.1c-0.6-0.2-1.2-0.5-1.7-0.7c-0.5-0.3-1.1-0.5-1.6-0.9l0,0c-0.5,0.2-0.9,0.5-1.4,0.7l0,0
			c-0.5,0.2-1,0.4-1.5,0.5c-1.7,0.5-3.5,0.8-5.4,0.8c-0.5,0-1,0-1.5-0.1c-0.1,0-0.2,0-0.4,0c0,0,0,0-0.1,0h-0.1c-0.1,0-0.2,0-0.3,0
			c0.1,0,0.2,0,0.3,0V39.4h1.3l-2-3.8v-5.8L99.6,44h7L92.5,17.2V0.6c0.2,0,0.3,0,0.5,0c2.1,0,4.1,0.4,6,1c0.3,0.1,0.5,0.2,0.8,0.3
			c0.5,0.2,1.1,0.5,1.5,0.7c0.5,0.3,1,0.6,1.5,0.9c0.9,0.6,1.8,1.3,2.6,2.1c2.6,2.5,4.5,5.9,5.1,9.6c0.1,0.9,0.2,1.7,0.3,2.6l0,0
			c0.6-0.1,1.3-0.1,1.9-0.1c4.9,0,9.4,2,12.6,5.2c1.4,1.4,2.6,3.1,3.5,4.9c0.5,0.9,0.8,1.9,1.1,2.9c0.1,0.3,0.1,0.5,0.2,0.8
			c0.2,0.7,0.3,1.3,0.3,2C130.6,34.2,130.7,34.9,130.7,35.6z"/>
		<path class="st3" d="M92.9,52.6L92.9,52.6c-0.1,0-0.2,0-0.3,0C92.7,52.6,92.8,52.6,92.9,52.6z"/>
		<g>
			<path class="st3" d="M94.2,39.4h-1.3v13.2c-0.1,0-0.2,0-0.3,0l0,0c-0.1,0-0.2,0-0.3,0l0,0c-0.2,0-0.4-0.1-0.6-0.1v-13h-1.4l2-3.8
				v0.1L94.2,39.4z"/>
		</g>
		<g>
			<path class="st3" d="M106.6,44.1h-7l-7.4-14.2l-7.1,13.7h-7l13.8-26.4V0.6c0.1,0,0.2,0,0.2,0c0.1,0,0.2,0,0.3,0v16.6L106.6,44.1z
				"/>
		</g>
	</g>
</g>
</svg>
