<?xml version="1.0" encoding="utf-8"?>
<!-- Generator: Adobe Illustrator 23.0.3, SVG Export Plug-In . SVG Version: 6.00 Build 0)  -->
<svg version="1.1" id="Layer_1" xmlns="http://www.w3.org/2000/svg" xmlns:xlink="http://www.w3.org/1999/xlink" x="0px" y="0px"
	 viewBox="0 0 50 50" style="enable-background:new 0 0 50 50;" xml:space="preserve">
<style type="text/css">
	.st0{fill:#FFFFFF;}
</style>
<g>
	<g>
		<path class="st0" d="M44.9,23.4H5.4c-1,0-1.7,0.8-1.7,1.7c0,1,0.8,1.7,1.7,1.7h39.4c1,0,1.7-0.8,1.7-1.7
			C46.6,24.2,45.8,23.4,44.9,23.4z"/>
	</g>
</g>
<g>
	<g>
		<path class="st0" d="M44.9,10.3H5.4c-1,0-1.7,0.8-1.7,1.7s0.8,1.7,1.7,1.7h39.4c1,0,1.7-0.8,1.7-1.7S45.8,10.3,44.9,10.3z"/>
	</g>
</g>
<g>
	<g>
		<path class="st0" d="M44.9,36.6H5.4c-1,0-1.7,0.8-1.7,1.7S4.5,40,5.4,40h39.4c1,0,1.7-0.8,1.7-1.7S45.8,36.6,44.9,36.6z"/>
	</g>
</g>
</svg>
