<?xml version="1.0" encoding="utf-8"?>
<!-- Generator: Adobe Illustrator 23.0.3, SVG Export Plug-In . SVG Version: 6.00 Build 0)  -->
<svg version="1.1" id="Layer_1" xmlns="http://www.w3.org/2000/svg" xmlns:xlink="http://www.w3.org/1999/xlink" x="0px" y="0px"
	 viewBox="0 0 50 50" style="enable-background:new 0 0 50 50;" xml:space="preserve">
<style type="text/css">
	.st0{fill:#00A8E7;}
</style>
<g id="Monitoring" transform="translate(-21.689 -132.002)">
	<g id="Group_21" transform="translate(21.689 132.002)">
		<g id="Group_20">
			<g id="Group_19">
				<g id="Group_18">
					<path id="Path_11" class="st0" d="M46.1,1H3.9C2.2,1.1,0.9,2.6,1,4.3v34.1c-0.1,1.7,1.2,3.2,2.9,3.3h42.2
						c1.7-0.1,3-1.6,2.9-3.3V4.3C49.1,2.6,47.8,1.1,46.1,1z M45.3,35.9H4.7V5.6h40.7L45.3,35.9z"/>
					<path id="Path_12" class="st0" d="M19.9,43.1L14.7,49h20.7l-5.2-5.9H19.9z"/>
					<path id="Path_13" class="st0" d="M10.5,29.1c1.1,0,2-0.8,2-1.9c0-0.2,0-0.5-0.1-0.7c2.6-2.1,7.1-5.9,9.2-7.5
						c0.6,0.5,1.5,0.5,2.1,0.1l5.2,4.5c0,0.1-0.1,0.2-0.1,0.3c0,1.1,0.9,2,2,2c1.1,0,2-0.9,2-2c0,0,0,0,0,0c0-0.2,0-0.4-0.1-0.6
						l5.2-4.8c0.3,0.2,0.6,0.2,0.9,0.3c1.1,0,2.1-0.9,2.1-2c0-1.1-0.9-2.1-2-2.1c-1.1,0-2.1,0.9-2.1,2c0,0,0,0,0,0
						c0,0.3,0.1,0.5,0.2,0.8l-5.1,4.7c-0.3-0.2-0.7-0.3-1.1-0.4c-0.5,0-0.9,0.2-1.2,0.5l-5-4.4c0.1-0.2,0.1-0.5,0.1-0.7
						c0-1.1-0.9-2-2-2.1c-1.1,0-2,0.9-2.1,2c0,0.3,0,0.5,0.1,0.8l-9.2,7.3c-0.3-0.2-0.7-0.4-1.1-0.4c-1.1,0-2.1,0.9-2.1,2.1
						C8.4,28.1,9.4,29.1,10.5,29.1L10.5,29.1z"/>
				</g>
			</g>
		</g>
	</g>
</g>
</svg>
