<?xml version="1.0" encoding="utf-8"?>
<!-- Generator: Adobe Illustrator 23.0.3, SVG Export Plug-In . SVG Version: 6.00 Build 0)  -->
<svg version="1.1" id="Layer_1" xmlns="http://www.w3.org/2000/svg" xmlns:xlink="http://www.w3.org/1999/xlink" x="0px" y="0px"
	 viewBox="0 0 50 50" style="enable-background:new 0 0 50 50;" xml:space="preserve">
<style type="text/css">
	.st0{fill:#00A8E7;}
</style>
<path id="Provision" class="st0" d="M46.8,9.7H37c-0.4,0-0.7,0.3-0.7,0.7s0.3,0.7,0.7,0.7h9.8c0.4,0,0.8,0.3,0.8,0.7v26.5
	c0,0.4-0.3,0.7-0.8,0.7H3.2c-0.4,0-0.8-0.3-0.8-0.7V11.8c0-0.4,0.3-0.7,0.8-0.7h15.4v1.4H4.5c-0.4,0-0.7,0.3-0.7,0.7c0,0,0,0,0,0
	v18.2c0,0.4,0.3,0.7,0.7,0.7c0.4,0,0.7-0.3,0.7-0.7V13.8h13.4v3.7l-3,1.4c-0.2,0.1-0.4,0.4-0.4,0.6v11.2c0,0.3,0.2,0.5,0.4,0.6
	l9.1,4.3c0.2,0.1,0.4,0.1,0.6,0l5.1-2.4c0.3-0.2,0.5-0.6,0.3-0.9c-0.2-0.3-0.6-0.4-0.9-0.3L25.7,34v-9.7l7.7-3.6v9.7l-1,0.5
	C32,31,31.8,31.4,32,31.8c0.2,0.3,0.6,0.5,0.9,0.4c0,0,0,0,0,0l1.4-0.7c0.2-0.1,0.4-0.4,0.4-0.6V19.6c0-0.3-0.2-0.5-0.4-0.6l-3-1.4
	v-3.7h13.4v22.5H5.2v-2c0-0.4-0.3-0.7-0.7-0.7c-0.4,0-0.7,0.3-0.7,0.7c0,0,0,0,0,0V37c0,0.4,0.3,0.7,0.7,0.7c0,0,0,0,0,0h41
	c0.4,0,0.7-0.3,0.7-0.7l0,0V13.2c0-0.4-0.3-0.7-0.7-0.7l0,0H31.4v-1.4H34c0.4,0,0.7-0.3,0.7-0.7S34.4,9.7,34,9.7h-2.6V8.3h6.3
	c0.4,0,0.7-0.3,0.7-0.7l0,0V6c1.1-0.4,1.7-1.6,1.3-2.6c-0.4-1.1-1.6-1.6-2.7-1.3c-1.1,0.4-1.7,1.6-1.3,2.6c0.2,0.6,0.7,1,1.3,1.3V7
	h-6.3C30.3,7,30,7.3,30,7.6v2.1h-4.3V6c1.1-0.4,1.7-1.6,1.3-2.6c-0.4-1.1-1.6-1.6-2.7-1.3c-1.1,0.4-1.7,1.6-1.3,2.6
	c0.2,0.6,0.7,1.1,1.3,1.3v3.7H20V7.6C20,7.3,19.7,7,19.3,7c0,0,0,0,0,0H13V6c1.1-0.4,1.7-1.6,1.3-2.6c-0.4-1.1-1.6-1.6-2.7-1.3
	c-1.1,0.4-1.7,1.6-1.3,2.6C10.5,5.3,11,5.8,11.6,6v1.6c0,0.4,0.3,0.7,0.7,0.7h6.3v1.4H3.2C2,9.7,1,10.7,1,11.8l0,0v26.5
	c0,1.2,1,2.1,2.2,2.1c0,0,0,0,0,0h15.2c-0.2,1.7-1.1,3.3-2.5,4.4h-3c-1.2,0-2.1,0.9-2.1,2.1c0,1.1,0.9,2.1,2.1,2.1h24.2
	c1.2,0,2.1-0.9,2.1-2.1c0-1.1-0.9-2.1-2.1-2.1l0,0h-3c-1.4-1.1-2.3-2.7-2.5-4.4h15.2c1.2,0,2.2-1,2.2-2.1l0,0V11.8
	C49,10.7,48,9.7,46.8,9.7z M37.7,3.4c0.4,0,0.7,0.3,0.7,0.7c0,0.4-0.3,0.7-0.7,0.7S37,4.4,37,4.1C37,3.7,37.3,3.4,37.7,3.4z M25,3.4
	c0.4,0,0.7,0.3,0.7,0.7c0,0.4-0.3,0.7-0.7,0.7c-0.4,0-0.7-0.3-0.7-0.7c0,0,0,0,0,0C24.3,3.7,24.6,3.4,25,3.4C25,3.4,25,3.4,25,3.4
	L25,3.4z M12.3,3.4c0.4,0,0.7,0.3,0.7,0.7c0,0.4-0.3,0.7-0.7,0.7c-0.4,0-0.7-0.3-0.7-0.7c0,0,0,0,0,0C11.6,3.7,11.9,3.4,12.3,3.4
	C12.3,3.4,12.3,3.4,12.3,3.4L12.3,3.4z M20,13.8h4.3v1l-4.3,2L20,13.8z M32.5,19.6L25,23l-7.5-3.5l7.5-3.5L32.5,19.6z M16.6,20.7
	l7.7,3.6v9.7l-7.7-3.6L16.6,20.7z M30,16.9l-4.3-2v-1H30V16.9z M30,11.1v1.4h-4.3v-1.4H30z M24.3,11.1v1.4H20v-1.4H24.3z M37.8,46.9
	c0,0.4-0.3,0.7-0.7,0.7l0,0H12.9c-0.4,0-0.7-0.3-0.7-0.7s0.3-0.7,0.7-0.7l0,0h24.2C37.5,46.2,37.8,46.5,37.8,46.9
	C37.8,46.9,37.8,46.9,37.8,46.9z M32.1,44.9H17.9c1.1-1.2,1.8-2.8,1.9-4.4h10.4C30.3,42.1,31,43.6,32.1,44.9L32.1,44.9z"/>
</svg>
