<?xml version="1.0" encoding="utf-8"?>
<!-- Generator: Adobe Illustrator 23.0.3, SVG Export Plug-In . SVG Version: 6.00 Build 0)  -->
<svg version="1.1" id="Layer_1" xmlns="http://www.w3.org/2000/svg" xmlns:xlink="http://www.w3.org/1999/xlink" x="0px" y="0px"
	 viewBox="0 0 50 50" style="enable-background:new 0 0 50 50;" xml:space="preserve">
<style type="text/css">
	.st0{fill:#FFFFFF;}
</style>
<g id="settings" transform="translate(-6938.738 -12855)">
	<g id="Group_571" transform="translate(6938.738 12855)">
		<g id="Group_16" transform="translate(0 0)">
			<g id="Group_15">
				<path id="Path_8" class="st0" d="M4.1,18.3c0.3,0.9,0.6,1.7,1,2.5l-1.3,1.6c-0.4,0.5-0.4,1.3,0.1,1.7l2.2,2.2
					c0.5,0.5,1.2,0.5,1.7,0.1l1.6-1.3c0.8,0.5,1.7,0.8,2.6,1.1l0.2,2c0.1,0.7,0.6,1.2,1.3,1.2h3.1c0.7,0,1.2-0.5,1.3-1.2l0.2-2
					c1-0.3,1.9-0.6,2.8-1.1l1.5,1.2c0.5,0.4,1.3,0.4,1.7-0.1l2.2-2.2c0.5-0.5,0.5-1.2,0.1-1.7l-1.2-1.5c0.5-0.9,0.9-1.8,1.1-2.7
					l1.8-0.2c0.7-0.1,1.2-0.6,1.2-1.3v-3.1c0-0.7-0.5-1.2-1.2-1.3l-1.8-0.2c-0.2-0.9-0.6-1.8-1.1-2.7L26.5,8
					c0.4-0.5,0.4-1.3-0.1-1.7l-2.2-2.2C23.8,3.6,23,3.6,22.5,4l-1.4,1.1c-0.9-0.5-1.8-0.9-2.8-1.2l-0.2-1.8C18,1.5,17.5,1,16.8,1
					h-3.1c-0.7,0-1.2,0.5-1.3,1.2l-0.2,1.8c-1,0.3-2,0.7-2.9,1.2L7.9,4C7.4,3.6,6.7,3.7,6.2,4.1L4,6.3C3.6,6.8,3.5,7.5,3.9,8
					l1.2,1.5c-0.5,0.9-0.8,1.8-1.1,2.7l-1.9,0.2C1.5,12.5,1,13.1,1,13.7v3.1c0,0.7,0.5,1.2,1.2,1.3L4.1,18.3z M15.3,10
					c2.8,0,5.1,2.3,5.1,5.1c0,2.8-2.3,5.1-5.1,5.1s-5.1-2.3-5.1-5.1c0,0,0,0,0,0C10.2,12.3,12.5,10,15.3,10L15.3,10z"/>
				<path id="Path_9" class="st0" d="M45.7,19.4L44.1,18c-0.5-0.4-1.2-0.4-1.7,0l-0.9,0.8c-0.8-0.4-1.6-0.6-2.4-0.8l-0.3-1.2
					c-0.1-0.6-0.7-1.1-1.4-1l-2.1,0.2c-0.6,0.1-1.2,0.6-1.2,1.2l0,1.3c-0.8,0.3-1.6,0.7-2.3,1.2L30.8,19c-0.5-0.4-1.3-0.3-1.7,0.2
					l-1.4,1.6c-0.4,0.5-0.4,1.2,0,1.7l0.9,1c-0.3,0.7-0.6,1.5-0.7,2.3l-1.3,0.3c-0.6,0.1-1.1,0.7-1,1.4l0.2,2.1
					c0.1,0.7,0.6,1.2,1.2,1.2l1.4,0c0.3,0.7,0.6,1.3,1,2l-0.8,1.2c-0.4,0.5-0.3,1.3,0.2,1.7l1.6,1.4c0.5,0.4,1.2,0.4,1.7,0l1.1-1
					c0.7,0.3,1.4,0.6,2.2,0.7l0.3,1.5c0.1,0.6,0.7,1.1,1.4,1l2.1-0.2c0.6-0.1,1.2-0.6,1.2-1.2l0-1.4c0.8-0.3,1.5-0.6,2.2-1.1
					l1.2,0.8c0.5,0.4,1.3,0.3,1.7-0.2l1.4-1.6c0.4-0.5,0.4-1.2,0-1.7l-0.9-1c0.3-0.7,0.6-1.5,0.7-2.3L48,29c0.6-0.1,1.1-0.7,1-1.4
					l-0.2-2.1c-0.1-0.6-0.6-1.2-1.2-1.2l-1.3,0c-0.3-0.8-0.6-1.5-1.1-2.1l0.7-1.1C46.3,20.6,46.2,19.8,45.7,19.4z M37.7,31.6
					c-2.3,0.2-4.3-1.5-4.5-3.8c-0.2-2.3,1.5-4.3,3.8-4.5s4.3,1.5,4.5,3.8c0,0,0,0,0,0C41.7,29.4,40,31.4,37.7,31.6L37.7,31.6z"/>
				<path id="Path_10" class="st0" d="M11.6,37.5c-0.7,0.1-1.1,0.6-1.2,1.3l0,1.3c0,0.7,0.5,1.2,1.1,1.3l1,0.1
					c0.2,0.6,0.4,1.1,0.7,1.7l-0.6,0.8c-0.4,0.5-0.4,1.2,0.1,1.7l0.9,0.9c0.5,0.5,1.2,0.5,1.7,0.1l0.8-0.6c0.5,0.3,1.1,0.6,1.7,0.7
					l0.1,1c0.1,0.7,0.6,1.1,1.3,1.2l1.3,0c0.7,0,1.2-0.5,1.3-1.1l0.1-0.9c0.6-0.2,1.3-0.4,1.9-0.7l0.7,0.6c0.5,0.4,1.2,0.4,1.7-0.1
					l0.9-0.9c0.5-0.5,0.5-1.2,0.1-1.7l-0.6-0.7c0.3-0.6,0.6-1.2,0.8-1.8l0.9-0.1c0.7-0.1,1.1-0.6,1.2-1.3l0-1.3
					c0-0.7-0.5-1.2-1.1-1.3l-0.8-0.1c-0.2-0.6-0.4-1.2-0.7-1.8l0.5-0.6c0.4-0.5,0.4-1.2-0.1-1.7l-0.9-0.9c-0.5-0.5-1.2-0.5-1.7-0.1
					l-0.6,0.5c-0.6-0.4-1.2-0.6-1.9-0.8L22,31.2c-0.1-0.7-0.6-1.1-1.3-1.2l-1.3,0c-0.7,0-1.2,0.5-1.3,1.1L18,31.9
					c-0.7,0.2-1.3,0.4-1.9,0.8l-0.6-0.5c-0.5-0.4-1.2-0.4-1.7,0.1l-0.9,0.9c-0.5,0.5-0.5,1.2-0.1,1.7l0.5,0.7
					c-0.3,0.6-0.6,1.2-0.7,1.8L11.6,37.5z M20,36.1c1.9,0,3.4,1.6,3.3,3.4c0,1.9-1.6,3.4-3.4,3.3c-1.9,0-3.4-1.6-3.3-3.4
					C16.6,37.5,18.1,36,20,36.1L20,36.1z"/>
			</g>
		</g>
	</g>
</g>
</svg>
